<svg width="75" height="34" viewBox="0 0 75 34" fill="none" xmlns="http://www.w3.org/2000/svg">
<path fill-rule="evenodd" clip-rule="evenodd" d="M65.9266 30.9623C65.1023 31.9179 63.429 31.7745 63.1542 30.3772C63.023 29.6843 63.2139 28.8484 63.5128 28.2631C64.182 26.9851 65.3889 25.9342 66.7634 25.5878C66.7634 26.3761 66.7634 27.4152 66.7394 28.2154C66.7152 29.0993 66.5243 30.2576 65.9266 30.9623ZM52.6265 12.08C53.3914 12.1277 54.0009 12.9637 53.7977 14.385C53.5467 16.0691 52.1485 17.8724 50.5593 18.2785C50.3081 17.6814 50.1888 16.4631 50.332 15.2688C50.5951 13.0831 51.7184 12.0321 52.6265 12.08ZM22.8357 20.2252C21.6526 18.6487 21.7003 16.7378 22.0709 14.9225C23.2299 17.526 26.3251 17.98 28.237 17.5977C27.9861 19.6042 26.9342 21.3599 25.1181 21.3599C24.1023 21.3718 23.3612 20.9299 22.8357 20.2252ZM27.0181 12.868C27.6012 13.463 27.9945 14.3303 28.1745 15.2929C28.1757 15.2928 28.1773 15.3046 28.1773 15.3046C28.1766 15.3007 28.1755 15.2968 28.1745 15.2929C26.8372 15.4834 25.5476 15.2326 24.6042 14.5043C23.9232 13.9669 23.7438 13.119 24.0306 12.6054C24.4487 11.865 25.7037 11.5425 27.0181 12.868ZM8.80661 3.0746C9.63094 2.10736 11.304 2.26238 11.5669 3.65989C11.6983 4.34059 11.519 5.17661 11.2205 5.7618C10.551 7.03968 9.3441 8.09064 7.96978 8.44899C7.96978 7.64898 7.95778 6.62172 7.99399 5.82161C8.01769 4.93778 8.20902 3.7673 8.80661 3.0746ZM69.8105 23.7844C69.8223 19.6281 69.8105 15.4718 69.8105 11.3155C69.8105 10.2885 66.8589 10.2286 66.7634 11.2678C66.7634 11.6858 66.7634 12.1157 66.7513 12.5337C66.7036 14.8149 65.6162 19.0787 63.8117 20.6313C63.3217 21.0495 62.8795 21.0733 62.569 20.8462C62.294 20.6432 62.2222 20.1298 62.2222 19.6879V19.1146C62.2222 16.5468 62.2343 13.8953 62.2222 11.3274C62.2222 10.3003 59.2706 10.2286 59.175 11.2678C59.175 13.6564 59.175 15.9735 59.1871 18.3383C57.2391 21.4435 52.7341 22.9006 50.8699 19.222C52.0291 19.664 53.2598 19.4489 54.0964 19.0071C55.5424 18.2426 56.6417 16.9768 56.8567 14.9703C57.0599 9.09399 49.2927 8.29397 47.5597 14.2776C47.2731 15.2688 47.1178 16.3318 47.1537 17.3708C47.1893 18.3621 47.3925 19.2817 47.7391 20.0939C47.1056 20.7149 46.3767 21.1449 45.6479 21.1211C44.6917 21.0852 44.7876 19.9029 44.7876 19.222V14.7432C44.7876 14.2058 44.7876 13.6684 44.7396 13.143C44.5845 11.5784 43.3893 10.3362 41.7164 10.2286C39.3382 10.1929 37.6653 12.4024 36.8408 14.8269C36.829 13.4773 36.8408 12.677 36.8408 11.3155C36.829 10.3003 34.0925 10.2286 33.7817 11.3035C33.3874 12.6651 32.0967 13.7281 30.8897 14.361C30.5194 13.4653 30.0535 12.6413 29.4082 11.9367C26.7551 9.05818 22.9194 9.58386 20.6725 11.9604C18.892 13.8476 18.3546 17.2514 19.3104 19.6399C18.6054 20.4762 17.6376 21.1569 16.7771 21.1211C16.3468 21.0972 16.1078 20.8462 16.0002 20.4522C15.8926 20.0699 15.9167 19.6162 15.9167 19.222C15.9167 17.7291 15.9046 16.2361 15.9167 14.7432C15.9167 14.2058 15.9167 13.6684 15.869 13.143C15.7135 11.5784 14.7933 10.3242 13.0488 10.2169C10.0492 10.0852 8.84232 12.9877 7.95778 15.3762V10.2765C8.59128 10.1689 9.20087 10.0136 9.81007 9.8346C16.4185 7.93552 15.1398 0.996391 10.2166 0.877075C6.89452 0.805464 4.92262 2.99099 4.94673 6.31118V8.461C3.75164 8.28197 2.85531 6.72934 2.35363 5.72609C2.28172 5.57077 2.21001 5.41545 2.1385 5.26012C2.07879 5.1049 1.91146 5.02149 1.75584 5.06919C1.62462 5.1049 1.4932 5.15281 1.36158 5.20051C0.883807 5.41555 0.489144 5.7858 0.298217 6.27547C-0.0482353 7.1473 0.298217 8.07894 0.907408 8.73574C1.91146 9.78679 3.51281 10.169 4.92262 10.2406C4.91062 14.385 4.92262 18.5174 4.92262 22.6617C4.97043 23.247 5.77125 23.4023 6.23722 23.4141C6.7273 23.4261 7.79066 23.2708 7.80276 22.6021L7.83857 22.0884C8.0417 20.2492 9.81007 12.8921 12.0447 12.88C12.5946 12.88 12.8695 13.2384 12.8695 13.7759V20.3329C12.8695 22.3632 14.0166 23.7247 16.0959 23.7247C17.7092 23.7367 19.1668 22.5661 20.0392 21.1092C20.1586 21.2644 20.2544 21.4315 20.3858 21.5748C21.521 22.9006 23.194 23.7487 25.1061 23.7606C29.2763 23.7008 31.4154 20.1178 31.2603 16.5945C32.2282 16.0571 33.1006 15.3642 33.7695 14.5043V22.6617C33.8174 23.247 34.6541 23.4023 35.1202 23.4141C35.6099 23.4261 36.6737 23.2708 36.6737 22.6021L36.7214 22.0884L36.8646 20.7269C37.0799 18.8279 38.5019 12.8921 40.9277 12.88C41.4652 12.88 41.7404 13.2384 41.7404 13.7759V20.3329C41.7404 22.3632 42.8876 23.7247 44.9785 23.7247C46.4247 23.7367 47.7391 22.7931 48.6234 21.551C49.7944 22.9961 51.5871 23.8441 53.7378 23.8441C56.2595 23.8441 58.0875 22.7334 59.3065 20.9418C59.5814 22.4827 60.4059 23.7008 62.4256 23.7247C64.5165 23.7367 66.1061 20.8225 66.7634 19.0667V23.7606C66.1417 23.868 65.5325 24.0233 64.9232 24.2023C58.3148 26.0895 59.5814 33.0404 64.5047 33.148C67.8387 33.2317 69.7984 31.0459 69.7866 27.7257C69.7866 27.1645 69.7746 26.1134 69.7866 25.5639C70.9696 25.7432 71.8777 27.3078 72.3678 28.311C72.4513 28.4663 72.5231 28.6214 72.5829 28.7767C72.6545 28.932 72.8098 29.0036 72.9772 28.9677C73.1086 28.932 73.24 28.8843 73.3595 28.8244C73.8495 28.6096 74.244 28.2513 74.4351 27.7497C74.7817 26.8778 74.4351 25.9582 73.8136 25.3012C72.822 24.2383 71.2084 23.868 69.8105 23.7844Z" fill="#FFA638"/>
</svg>
